<mxfile host="Electron" modified="2024-07-22T21:52:07.802Z" agent="Mozilla/5.0 (Windows NT 10.0; Win64; x64) AppleWebKit/537.36 (KHTML, like Gecko) draw.io/22.1.16 Chrome/120.0.6099.109 Electron/28.1.0 Safari/537.36" etag="vlVmKgePKvAi3E3PEDVV" version="22.1.16" type="device">
  <diagram name="Page-1" id="6tg9GIHV7iliTP3JH1uk">
    <mxGraphModel dx="819" dy="546" grid="1" gridSize="10" guides="1" tooltips="1" connect="1" arrows="1" fold="1" page="1" pageScale="1" pageWidth="300" pageHeight="250" math="0" shadow="0">
      <root>
        <mxCell id="0" />
        <mxCell id="1" parent="0" />
        <mxCell id="hHmgyYZAZo99E_Bc1XQI-2" value="" style="endArrow=none;html=1;rounded=1;curved=0;arcSize=5;" parent="1" edge="1">
          <mxGeometry width="50" height="50" relative="1" as="geometry">
            <mxPoint x="156.07000000000002" y="141.46596858638745" as="sourcePoint" />
            <mxPoint x="107.38000000000001" y="27.85340314136126" as="targetPoint" />
            <Array as="points">
              <mxPoint x="156.07000000000002" y="125.23560209424085" />
              <mxPoint x="172.3" y="125.23560209424085" />
              <mxPoint x="172.3" y="60.31413612565446" />
              <mxPoint x="91.15" y="60.31413612565446" />
              <mxPoint x="91.15" y="44.083769633507856" />
            </Array>
          </mxGeometry>
        </mxCell>
        <mxCell id="hHmgyYZAZo99E_Bc1XQI-14" value="" style="endArrow=blockThin;html=1;rounded=0;endFill=1;" parent="1" edge="1">
          <mxGeometry width="50" height="50" relative="1" as="geometry">
            <mxPoint x="83.03500000000001" y="10" as="sourcePoint" />
            <mxPoint x="83.03500000000001" y="34.3455497382199" as="targetPoint" />
          </mxGeometry>
        </mxCell>
        <mxCell id="hHmgyYZAZo99E_Bc1XQI-16" value="" style="endArrow=none;html=1;rounded=1;curved=0;arcSize=5;" parent="1" edge="1">
          <mxGeometry width="50" height="50" relative="1" as="geometry">
            <mxPoint x="123.61" y="157.69633507853402" as="sourcePoint" />
            <mxPoint x="58.690000000000005" y="157.69633507853402" as="targetPoint" />
            <Array as="points">
              <mxPoint x="139.84" y="173.92670157068065" />
              <mxPoint x="139.84" y="190.15706806282725" />
              <mxPoint x="42.46" y="190.15706806282725" />
              <mxPoint x="42.46" y="173.92670157068065" />
            </Array>
          </mxGeometry>
        </mxCell>
        <mxCell id="hHmgyYZAZo99E_Bc1XQI-27" value="" style="endArrow=blockThin;html=1;rounded=0;endFill=1;" parent="1" edge="1">
          <mxGeometry width="50" height="50" relative="1" as="geometry">
            <mxPoint x="34.345" y="141.46596858638745" as="sourcePoint" />
            <mxPoint x="34.345" y="173.92670157068065" as="targetPoint" />
          </mxGeometry>
        </mxCell>
        <mxCell id="hHmgyYZAZo99E_Bc1XQI-35" value="" style="endArrow=none;html=1;rounded=1;curved=0;arcSize=5;" parent="1" edge="1">
          <mxGeometry width="50" height="50" relative="1" as="geometry">
            <mxPoint x="156.07000000000002" y="271.3089005235602" as="sourcePoint" />
            <mxPoint x="172.3" y="157.69633507853402" as="targetPoint" />
            <Array as="points">
              <mxPoint x="156.07000000000002" y="255.07853403141362" />
              <mxPoint x="172.3" y="255.07853403141362" />
              <mxPoint x="172.3" y="190.15706806282725" />
              <mxPoint x="156.07000000000002" y="190.15706806282725" />
              <mxPoint x="156.07000000000002" y="173.92670157068065" />
            </Array>
          </mxGeometry>
        </mxCell>
        <mxCell id="hHmgyYZAZo99E_Bc1XQI-39" value="" style="endArrow=blockThin;html=1;rounded=0;endFill=1;" parent="1" edge="1">
          <mxGeometry width="50" height="50" relative="1" as="geometry">
            <mxPoint x="147.955" y="141.46596858638745" as="sourcePoint" />
            <mxPoint x="147.955" y="173.92670157068065" as="targetPoint" />
          </mxGeometry>
        </mxCell>
        <mxCell id="hHmgyYZAZo99E_Bc1XQI-41" value="" style="endArrow=none;html=1;rounded=1;curved=0;arcSize=5;" parent="1" edge="1">
          <mxGeometry width="50" height="50" relative="1" as="geometry">
            <mxPoint x="253.45000000000002" y="157.69633507853402" as="sourcePoint" />
            <mxPoint x="123.61" y="271.3089005235602" as="targetPoint" />
            <Array as="points">
              <mxPoint x="253.45000000000002" y="141.46596858638745" />
              <mxPoint x="220.99000000000004" y="141.46596858638745" />
              <mxPoint x="220.99000000000004" y="320" />
              <mxPoint x="139.84" y="320" />
              <mxPoint x="139.84" y="287.5392670157068" />
            </Array>
          </mxGeometry>
        </mxCell>
        <mxCell id="hHmgyYZAZo99E_Bc1XQI-64" value="" style="endArrow=none;html=1;rounded=1;curved=0;arcSize=5;" parent="1" edge="1">
          <mxGeometry width="50" height="50" relative="1" as="geometry">
            <mxPoint x="269.68" y="157.69633507853402" as="sourcePoint" />
            <mxPoint x="172.3" y="271.3089005235602" as="targetPoint" />
            <Array as="points">
              <mxPoint x="269.68" y="125.23560209424085" />
              <mxPoint x="204.76000000000002" y="125.23560209424085" />
              <mxPoint x="204.76000000000002" y="303.7696335078534" />
              <mxPoint x="156.07000000000002" y="303.7696335078534" />
              <mxPoint x="156.07000000000002" y="287.5392670157068" />
            </Array>
          </mxGeometry>
        </mxCell>
        <mxCell id="hHmgyYZAZo99E_Bc1XQI-65" value="" style="endArrow=blockThin;html=1;rounded=0;endFill=1;" parent="1" edge="1">
          <mxGeometry width="50" height="50" relative="1" as="geometry">
            <mxPoint x="147.955" y="255.07853403141362" as="sourcePoint" />
            <mxPoint x="147.955" y="287.5392670157068" as="targetPoint" />
          </mxGeometry>
        </mxCell>
        <mxCell id="hHmgyYZAZo99E_Bc1XQI-66" value="" style="endArrow=blockThin;html=1;rounded=0;endFill=1;" parent="1" edge="1">
          <mxGeometry width="50" height="50" relative="1" as="geometry">
            <mxPoint x="261.56500000000005" y="149.58115183246073" as="sourcePoint" />
            <mxPoint x="261.56500000000005" y="182.04188481675394" as="targetPoint" />
          </mxGeometry>
        </mxCell>
        <mxCell id="hHmgyYZAZo99E_Bc1XQI-67" value="" style="endArrow=blockThin;html=1;rounded=0;endFill=1;" parent="1" edge="1">
          <mxGeometry width="50" height="50" relative="1" as="geometry">
            <mxPoint x="326.485" y="272.9319371727749" as="sourcePoint" />
            <mxPoint x="326.485" y="305.39267015706804" as="targetPoint" />
          </mxGeometry>
        </mxCell>
        <mxCell id="hHmgyYZAZo99E_Bc1XQI-68" value="x&lt;sup style=&quot;&quot;&gt;&lt;font style=&quot;font-size: 12px;&quot;&gt;2&lt;/font&gt;&lt;/sup&gt;" style="text;strokeColor=none;align=center;fillColor=none;html=1;verticalAlign=middle;whiteSpace=wrap;rounded=0;fontSize=15;" parent="1" vertex="1">
          <mxGeometry x="83.03500000000001" y="76.54450261780106" width="64.92" height="32.460732984293195" as="geometry" />
        </mxCell>
        <mxCell id="hHmgyYZAZo99E_Bc1XQI-69" value="x + y" style="text;strokeColor=none;align=center;fillColor=none;html=1;verticalAlign=middle;whiteSpace=wrap;rounded=0;fontSize=15;" parent="1" vertex="1">
          <mxGeometry x="58.690000000000005" y="206.38743455497382" width="64.92" height="32.460732984293195" as="geometry" />
        </mxCell>
        <mxCell id="hHmgyYZAZo99E_Bc1XQI-70" value="x + 1" style="text;strokeColor=none;align=center;fillColor=none;html=1;verticalAlign=middle;whiteSpace=wrap;rounded=0;fontSize=15;" parent="1" vertex="1">
          <mxGeometry x="264.81100000000004" y="214.50261780104714" width="64.92" height="32.460732984293195" as="geometry" />
        </mxCell>
        <mxCell id="1HjXiJQ7qyAeAaL4lSqM-4" value="" style="endArrow=none;html=1;rounded=1;endFill=0;curved=0;arcSize=5;" parent="1" edge="1">
          <mxGeometry width="50" height="50" relative="1" as="geometry">
            <mxPoint x="58.690000000000005" y="27.85340314136126" as="sourcePoint" />
            <mxPoint x="139.84" y="141.46596858638745" as="targetPoint" />
            <Array as="points">
              <mxPoint x="74.92" y="44.083769633507856" />
              <mxPoint x="74.92" y="60.31413612565446" />
              <mxPoint x="58.690000000000005" y="60.31413612565446" />
              <mxPoint x="58.690000000000005" y="125.23560209424085" />
              <mxPoint x="139.84" y="125.23560209424085" />
            </Array>
          </mxGeometry>
        </mxCell>
        <mxCell id="1HjXiJQ7qyAeAaL4lSqM-5" value="" style="endArrow=none;html=1;rounded=1;arcSize=5;curved=0;" parent="1" edge="1">
          <mxGeometry width="50" height="50" relative="1" as="geometry">
            <mxPoint x="334.6" y="279.4240837696335" as="sourcePoint" />
            <mxPoint x="285.91" y="165.81151832460733" as="targetPoint" />
            <Array as="points">
              <mxPoint x="334.6" y="263.19371727748694" />
              <mxPoint x="350.83" y="263.19371727748694" />
              <mxPoint x="350.83" y="198.27225130890054" />
              <mxPoint x="269.68" y="198.27225130890054" />
              <mxPoint x="269.68" y="182.04188481675394" />
            </Array>
          </mxGeometry>
        </mxCell>
        <mxCell id="1HjXiJQ7qyAeAaL4lSqM-6" value="" style="endArrow=none;html=1;rounded=1;endFill=0;arcSize=5;curved=0;" parent="1" edge="1">
          <mxGeometry width="50" height="50" relative="1" as="geometry">
            <mxPoint x="237.22" y="165.81151832460733" as="sourcePoint" />
            <mxPoint x="318.37" y="279.4240837696335" as="targetPoint" />
            <Array as="points">
              <mxPoint x="253.45000000000002" y="182.04188481675394" />
              <mxPoint x="253.45000000000002" y="198.27225130890054" />
              <mxPoint x="237.22" y="198.27225130890054" />
              <mxPoint x="237.22" y="263.19371727748694" />
              <mxPoint x="318.37" y="263.19371727748694" />
            </Array>
          </mxGeometry>
        </mxCell>
        <mxCell id="0zWPNHQlQ6AzTByDRqDW-1" value="" style="endArrow=none;html=1;rounded=1;endFill=0;curved=0;arcSize=5;" edge="1" parent="1">
          <mxGeometry width="50" height="50" relative="1" as="geometry">
            <mxPoint x="10" y="157.69633507853402" as="sourcePoint" />
            <mxPoint x="139.84" y="271.3089005235602" as="targetPoint" />
            <Array as="points">
              <mxPoint x="26.23" y="173.92670157068065" />
              <mxPoint x="26.23" y="190.15706806282725" />
              <mxPoint x="10" y="190.15706806282725" />
              <mxPoint x="10" y="255.07853403141362" />
              <mxPoint x="139.84" y="255.07853403141362" />
            </Array>
          </mxGeometry>
        </mxCell>
      </root>
    </mxGraphModel>
  </diagram>
</mxfile>
